<svg width="155" height="59" viewBox="0 0 155 59" fill="none" xmlns="http://www.w3.org/2000/svg">
<rect width="68.6401" height="59" rx="4" fill="#4F73B6"/>
<path d="M22.5198 41.9808V22.5925H31.043C33.0218 22.5925 34.583 23.0373 35.7267 23.9268C36.8885 24.8163 37.4695 26.0599 37.4695 27.6574C37.4695 28.7466 37.1699 29.6816 36.5709 30.4622C35.9718 31.2428 35.1276 31.7874 34.0384 32.096V31.8782C35.291 32.1505 36.2532 32.7042 36.9249 33.5393C37.6147 34.3743 37.9596 35.4273 37.9596 36.698C37.9596 38.35 37.3696 39.648 36.1896 40.592C35.0278 41.5179 33.3939 41.9808 31.2881 41.9808H22.5198ZM25.9509 39.2305H30.9341C32.223 39.2305 33.1579 39.0126 33.7389 38.5769C34.3379 38.1231 34.6375 37.3969 34.6375 36.3985C34.6375 35.4182 34.3379 34.692 33.7389 34.22C33.1398 33.748 32.2049 33.512 30.9341 33.512H25.9509V39.2305ZM25.9509 30.7617H30.4439C31.6965 30.7617 32.6224 30.5348 33.2215 30.0809C33.8205 29.6271 34.1201 28.9463 34.1201 28.0386C34.1201 27.1128 33.8205 26.432 33.2215 25.9963C32.6224 25.5606 31.6965 25.3428 30.4439 25.3428H25.9509V30.7617Z" fill="white"/>
<path d="M41.0484 41.9808V28.2293H44.4522V41.9808H41.0484ZM40.885 21.9934H44.6701V25.3428H40.885V21.9934Z" fill="white"/>
<path d="M54.3851 42.1714C52.9509 42.1714 51.7074 41.881 50.6545 41.3C49.6197 40.7191 48.8209 39.9022 48.2582 38.8493C47.6954 37.7782 47.414 36.5074 47.414 35.0369C47.414 33.5846 47.6954 32.3229 48.2582 31.2519C48.8209 30.1626 49.6197 29.3276 50.6545 28.7466C51.7074 28.1657 52.9509 27.8753 54.3851 27.8753C55.7829 27.8753 56.9993 28.1657 58.034 28.7466C59.0869 29.3276 59.8948 30.1626 60.4576 31.2519C61.0385 32.3229 61.3289 33.5846 61.3289 35.0369C61.3289 36.5074 61.0385 37.7782 60.4576 38.8493C59.8948 39.9022 59.0869 40.7191 58.034 41.3C56.9993 41.881 55.7829 42.1714 54.3851 42.1714ZM54.3851 39.5573C55.5106 39.5573 56.3729 39.1851 56.972 38.4408C57.5893 37.6783 57.8979 36.5437 57.8979 35.0369C57.8979 33.5483 57.5893 32.4319 56.972 31.6876C56.3729 30.9251 55.5106 30.5439 54.3851 30.5439C53.2414 30.5439 52.3519 30.9251 51.7165 31.6876C51.0993 32.4319 50.7906 33.5483 50.7906 35.0369C50.7906 36.5437 51.0993 37.6783 51.7165 38.4408C52.3337 39.1851 53.2232 39.5573 54.3851 39.5573Z" fill="white"/>
<path d="M72.8198 41.9811V22.5927H81.3431C83.3218 22.5927 84.8831 23.0375 86.0267 23.9271C87.1886 24.8166 87.7695 26.0601 87.7695 27.6577C87.7695 28.7469 87.47 29.6818 86.8709 30.4624C86.2718 31.2431 85.4277 31.7877 84.3384 32.0963V31.8784C85.5911 32.1507 86.5532 32.7044 87.2249 33.5395C87.9147 34.3746 88.2597 35.4275 88.2597 36.6983C88.2597 38.3503 87.6697 39.6483 86.4897 40.5923C85.3278 41.5181 83.694 41.9811 81.5881 41.9811H72.8198ZM76.2509 39.2307H81.2341C82.5231 39.2307 83.458 39.0129 84.0389 38.5772C84.638 38.1234 84.9375 37.3972 84.9375 36.3987C84.9375 35.4184 84.638 34.6923 84.0389 34.2203C83.4398 33.7483 82.5049 33.5123 81.2341 33.5123H76.2509V39.2307ZM76.2509 30.762H80.744C81.9966 30.762 82.9224 30.5351 83.5215 30.0812C84.1206 29.6274 84.4201 28.9466 84.4201 28.0389C84.4201 27.1131 84.1206 26.4323 83.5215 25.9966C82.9224 25.5609 81.9966 25.3431 80.744 25.3431H76.2509V30.762Z" fill="#5679B9"/>
<path d="M91.3484 41.9811V32.1235C91.3484 31.4881 91.3303 30.8437 91.294 30.1901C91.2758 29.5184 91.2214 28.8649 91.1306 28.2295H94.3438L94.7251 31.7695L94.3438 31.5789C94.5798 30.3626 95.1154 29.4458 95.9504 28.8286C96.7855 28.2114 97.7295 27.9027 98.7824 27.9027C99.0548 27.9027 99.3089 27.9209 99.5449 27.9572C99.7809 27.9935 99.9897 28.048 100.171 28.1206L100.117 31.2249C99.554 30.9889 98.9549 30.8709 98.3195 30.8709C97.5026 30.8709 96.8309 31.0343 96.3044 31.3611C95.7961 31.6878 95.4058 32.1326 95.1335 32.6954C94.8794 33.24 94.7523 33.8572 94.7523 34.5471V41.9811H91.3484Z" fill="#5679B9"/>
<path d="M102.012 41.9811V28.2295H105.416V41.9811H102.012ZM101.849 21.9937H105.634V25.3431H101.849V21.9937Z" fill="#5679B9"/>
<path d="M122.265 41.9811H118.916V38.4955L119.243 38.9857C118.934 40.0023 118.344 40.792 117.473 41.3547C116.62 41.8994 115.612 42.1717 114.45 42.1717C113.252 42.1717 112.19 41.8812 111.264 41.3003C110.356 40.7012 109.648 39.8571 109.14 38.7678C108.632 37.6786 108.378 36.4169 108.378 34.9827C108.378 33.5486 108.623 32.296 109.113 31.2249C109.621 30.1538 110.338 29.3278 111.264 28.7469C112.19 28.166 113.252 27.8755 114.45 27.8755C115.612 27.8755 116.62 28.166 117.473 28.7469C118.344 29.3278 118.934 30.1084 119.243 31.0887L118.862 31.4972V21.9392H122.265V41.9811ZM115.376 39.5575C116.502 39.5575 117.373 39.1672 117.99 38.3866C118.607 37.606 118.916 36.4895 118.916 35.0372C118.916 33.6031 118.607 32.4957 117.99 31.7151C117.373 30.9344 116.502 30.5441 115.376 30.5441C114.232 30.5441 113.343 30.9344 112.707 31.7151C112.072 32.4775 111.754 33.5668 111.754 34.9827C111.754 36.4351 112.072 37.5606 112.707 38.3594C113.343 39.1581 114.232 39.5575 115.376 39.5575Z" fill="#5679B9"/>
<path d="M132.263 48.0535C130.139 48.0535 128.278 47.6178 126.681 46.7464L127.225 44.1595C128.06 44.5952 128.877 44.9129 129.676 45.1126C130.493 45.3304 131.337 45.4394 132.208 45.4394C133.425 45.4394 134.341 45.1398 134.959 44.5408C135.576 43.9417 135.885 43.034 135.885 41.8177V38.4138H136.211C135.993 38.9947 135.649 39.5303 135.177 40.0204C134.723 40.4924 134.169 40.8737 133.515 41.1641C132.862 41.4364 132.145 41.5726 131.364 41.5726C130.166 41.5726 129.104 41.2912 128.178 40.7284C127.252 40.1657 126.526 39.376 126 38.3594C125.491 37.3246 125.237 36.1174 125.237 34.7377C125.237 33.358 125.491 32.1598 126 31.1432C126.526 30.1084 127.252 29.3097 128.178 28.7469C129.104 28.166 130.166 27.8755 131.364 27.8755C132.544 27.8755 133.57 28.166 134.441 28.7469C135.313 29.3278 135.903 30.1084 136.211 31.0887L135.885 31.1432V28.2295H139.261V41.5454C139.261 43.6875 138.671 45.3032 137.491 46.3924C136.311 47.4998 134.568 48.0535 132.263 48.0535ZM132.29 38.9312C133.416 38.9312 134.296 38.5591 134.931 37.8147C135.567 37.0704 135.885 36.0447 135.885 34.7377C135.885 33.4306 135.567 32.4049 134.931 31.6606C134.296 30.9163 133.416 30.5441 132.29 30.5441C131.146 30.5441 130.248 30.9163 129.594 31.6606C128.941 32.4049 128.614 33.4306 128.614 34.7377C128.614 36.0447 128.941 37.0704 129.594 37.8147C130.248 38.5591 131.146 38.9312 132.29 38.9312Z" fill="#5679B9"/>
<path d="M154.73 40.4561C154.076 41.0007 153.268 41.4274 152.306 41.736C151.362 42.0264 150.4 42.1717 149.42 42.1717C147.931 42.1717 146.642 41.8903 145.553 41.3275C144.482 40.7647 143.656 39.9478 143.075 38.8767C142.494 37.8057 142.203 36.5349 142.203 35.0644C142.203 33.6484 142.485 32.4049 143.048 31.3338C143.61 30.2446 144.391 29.4004 145.389 28.8014C146.388 28.1841 147.541 27.8755 148.848 27.8755C150.118 27.8755 151.208 28.1569 152.115 28.7197C153.023 29.2643 153.722 30.054 154.212 31.0887C154.72 32.1235 154.975 33.3489 154.975 34.7649V35.2823H145.199L145.226 33.4578H152.96L152.034 34.3837C152.052 33.0584 151.789 32.0509 151.244 31.3611C150.718 30.6712 149.946 30.3263 148.929 30.3263C147.84 30.3263 146.996 30.7166 146.397 31.4972C145.798 32.2597 145.498 33.358 145.498 34.7921C145.498 36.426 145.834 37.6332 146.506 38.4138C147.178 39.1763 148.194 39.5575 149.556 39.5575C150.3 39.5575 151.026 39.4395 151.734 39.2035C152.46 38.9494 153.132 38.5863 153.749 38.1143L154.73 40.4561Z" fill="#5679B9"/>
</svg>
